<?xml version="1.0" encoding="UTF-8" ?>
<!DOCTYPE svg PUBLIC "-//W3C//DTD SVG 1.1//EN" "http://www.w3.org/Graphics/SVG/1.1/DTD/svg11.dtd">
<svg width="354pt" height="354pt" viewBox="0 0 354 354" version="1.1" xmlns="http://www.w3.org/2000/svg">
<g id="#36a2a2ff">
<path fill="#36a2a2" stroke="#36a2a2" stroke-width="0.09375" opacity="1.00" d=" M 159.03 45.94 C 157.92 38.86 165.76 31.88 172.65 34.50 C 175.06 35.28 177.52 34.21 179.97 34.19 C 190.33 35.45 200.84 35.88 210.99 38.54 C 234.33 43.80 256.18 55.11 274.20 70.81 C 278.07 74.28 282.34 77.37 285.52 81.55 C 291.79 88.62 297.73 96.00 302.74 104.03 C 305.62 108.89 310.04 113.04 310.88 118.89 C 310.10 117.43 309.32 115.96 308.56 114.49 C 302.14 117.27 295.93 120.53 290.16 124.48 C 290.76 124.93 291.98 125.84 292.58 126.30 L 292.93 127.17 C 291.67 126.32 290.39 125.51 289.12 124.68 C 287.65 125.63 285.56 126.05 284.93 127.89 C 282.70 127.40 280.73 128.71 278.82 129.63 C 274.78 131.72 270.46 133.42 267.04 136.49 C 270.60 131.13 273.79 125.41 275.39 119.13 C 274.52 115.02 270.05 113.90 267.02 111.79 C 260.05 107.24 252.04 104.54 245.20 99.76 C 241.28 97.16 236.89 95.40 232.77 93.17 C 221.48 86.84 210.82 79.36 199.08 73.86 C 193.56 70.80 188.16 67.45 182.18 65.33 C 180.61 66.34 178.62 67.04 177.86 68.90 C 173.86 76.47 168.80 83.45 165.19 91.23 C 162.67 96.71 159.19 101.87 158.05 107.88 C 157.56 110.59 156.86 113.27 156.58 116.01 C 157.71 126.14 161.55 135.69 166.11 144.73 C 168.84 151.87 172.92 158.40 175.72 165.51 C 176.78 167.99 177.88 170.46 179.24 172.80 C 180.34 174.92 182.85 175.51 184.81 176.53 C 187.70 175.60 190.70 175.16 193.72 174.91 C 185.61 176.56 179.28 182.30 171.62 185.16 C 172.08 185.63 172.99 186.56 173.44 187.03 C 167.97 185.78 162.49 187.31 157.04 187.87 C 146.98 189.03 136.93 190.18 126.88 191.44 C 118.71 192.54 111.26 196.76 105.02 201.98 C 99.47 208.68 95.46 216.48 90.87 223.84 C 87.89 228.51 85.69 233.61 83.07 238.49 C 84.01 235.47 85.32 232.59 86.63 229.71 C 73.54 234.76 61.98 242.92 49.09 248.44 C 49.06 249.64 49.05 250.84 49.05 252.05 C 37.53 231.28 32.01 207.58 31.13 183.95 C 31.48 157.88 37.84 131.63 51.20 109.12 C 53.13 105.90 54.69 102.14 58.08 100.16 C 61.09 97.79 65.37 98.02 68.68 99.61 C 70.97 101.55 72.72 103.96 73.29 106.95 C 73.35 109.83 72.59 112.68 70.85 115.01 C 51.07 146.26 45.76 186.38 57.62 221.50 C 58.81 224.56 59.29 228.02 61.43 230.61 C 65.66 221.33 71.51 212.94 76.29 203.95 C 70.43 177.63 75.65 149.06 90.33 126.45 C 92.16 123.00 95.26 119.12 99.71 120.40 C 101.12 121.93 102.83 123.89 102.06 126.14 C 100.88 129.38 98.49 131.97 96.84 134.96 C 87.38 151.44 82.49 170.81 84.22 189.80 C 89.01 182.58 93.11 174.88 97.48 167.39 C 117.33 133.23 137.05 99.01 156.89 64.85 C 158.42 62.19 160.04 59.43 162.96 58.11 C 164.34 59.20 165.70 60.31 167.06 61.42 C 167.50 60.08 169.10 58.57 167.90 57.16 C 166.41 55.55 164.09 55.02 162.44 53.58 C 160.59 51.43 159.68 48.65 159.03 45.94 M 195.14 45.96 C 199.27 49.45 204.55 51.03 209.01 54.02 C 222.39 61.24 235.77 68.46 248.93 76.10 C 260.87 82.75 272.55 89.91 284.65 96.27 C 282.77 92.95 279.95 90.35 277.47 87.51 C 255.92 64.73 226.27 49.70 195.14 45.96 M 155.73 81.52 C 154.97 82.87 153.38 84.22 154.37 85.87 C 154.61 85.54 155.09 84.89 155.33 84.56 C 155.35 84.53 155.39 84.46 155.42 84.43 C 158.02 78.89 162.22 74.34 165.11 68.97 C 165.64 67.74 166.45 66.39 165.84 65.01 C 162.63 70.60 159.49 76.26 155.73 81.52 M 151.62 88.68 C 148.49 93.54 145.55 98.53 142.39 103.37 C 127.33 129.28 112.36 155.25 97.32 181.17 C 93.29 188.81 87.95 195.81 85.05 204.01 C 80.70 208.93 78.09 215.04 74.64 220.59 C 71.88 225.04 69.41 229.66 66.72 234.15 C 66.08 235.92 68.62 237.11 69.79 235.90 C 72.01 234.58 72.57 231.84 73.84 229.76 C 78.25 221.91 83.25 214.39 87.54 206.47 C 93.69 195.77 103.57 187.31 115.09 182.88 C 124.66 179.41 134.97 179.24 144.94 177.80 C 151.87 176.71 159.03 176.84 165.79 174.81 C 165.93 174.16 166.21 172.88 166.35 172.23 C 163.99 165.36 159.77 159.30 157.29 152.46 C 153.75 144.76 149.40 137.31 147.43 128.99 C 146.59 124.63 145.97 120.22 145.37 115.82 C 146.00 109.46 147.05 103.10 148.95 96.98 C 149.97 93.60 152.37 90.81 153.15 87.34 C 152.77 87.68 152.00 88.35 151.62 88.68 Z" />
<path fill="#36a2a2" stroke="#36a2a2" stroke-width="0.09375" opacity="1.00" d=" M 275.06 175.40 C 276.55 180.01 276.31 185.00 275.10 189.65 C 275.25 184.90 275.32 180.15 275.06 175.40 Z" />
<path fill="#36a2a2" stroke="#36a2a2" stroke-width="0.09375" opacity="1.00" d=" M 265.30 225.58 C 265.33 225.51 265.40 225.37 265.43 225.30 C 265.40 225.37 265.33 225.51 265.30 225.58 Z" />
</g>
<g id="#ffffffff">
<path fill="#ffffff" stroke="#ffffff" stroke-width="0.09375" opacity="1.00" d=" M 155.33 84.56 C 155.35 84.53 155.39 84.46 155.42 84.43 C 155.39 84.46 155.35 84.53 155.33 84.56 Z" />
<path fill="#ffffff" stroke="#ffffff" stroke-width="0.09375" opacity="1.00" d=" M 159.41 257.45 C 163.68 250.57 162.79 241.81 166.58 234.72 C 167.47 237.37 167.71 240.17 167.77 242.96 C 167.78 249.02 171.08 254.53 174.98 258.94 C 178.25 262.68 183.58 262.64 188.00 263.97 C 188.29 264.25 188.87 264.81 189.15 265.09 C 188.25 265.62 187.35 266.17 186.45 266.72 C 182.13 268.45 177.48 269.23 173.23 271.08 C 169.12 274.61 167.08 279.87 165.99 285.05 C 165.54 286.65 164.97 288.22 164.36 289.77 C 164.12 290.12 163.64 290.81 163.40 291.15 C 163.25 291.69 162.93 292.77 162.78 293.31 C 162.02 291.92 161.28 290.51 160.22 289.33 L 161.27 289.99 C 161.26 287.52 161.26 285.04 161.63 282.59 C 163.19 277.38 161.78 270.92 156.74 268.15 C 151.52 266.85 146.02 268.40 140.79 267.19 C 139.58 266.64 136.97 265.18 138.92 263.90 C 145.51 261.14 153.84 262.49 159.41 257.45 Z" />
</g>
<g id="#01396fff">
<path fill="#01396f" stroke="#01396f" stroke-width="0.09375" opacity="1.00" d=" M 290.16 124.48 C 295.93 120.53 302.14 117.27 308.56 114.49 C 309.32 115.96 310.10 117.43 310.88 118.89 C 317.02 131.14 321.09 144.42 323.27 157.94 C 324.85 166.23 324.84 174.69 325.94 183.02 C 324.79 188.59 325.19 194.32 324.27 199.92 C 322.65 214.63 318.69 229.06 312.65 242.57 C 309.94 248.43 306.78 254.07 303.91 259.85 C 297.28 269.73 289.65 278.93 281.69 287.76 C 274.02 294.07 266.82 301.04 258.32 306.27 C 256.25 307.56 253.87 308.16 251.56 308.85 C 249.05 308.02 246.26 307.56 244.21 305.77 C 241.80 302.72 240.74 298.34 242.68 294.77 C 244.07 290.61 248.32 288.87 251.62 286.52 C 270.55 273.34 285.33 254.56 294.60 233.50 C 308.16 202.56 308.74 166.20 295.98 134.90 C 294.91 132.35 293.83 129.79 292.93 127.17 L 292.58 126.30 C 291.98 125.84 290.76 124.93 290.16 124.48 Z" />
<path fill="#01396f" stroke="#01396f" stroke-width="0.09375" opacity="1.00" d=" M 278.82 129.63 C 280.73 128.71 282.70 127.40 284.93 127.89 C 279.07 138.60 272.57 148.98 266.50 159.58 C 263.65 163.35 261.44 167.87 257.14 170.24 C 249.65 176.34 240.69 181.02 230.98 182.07 C 218.97 183.72 206.89 184.82 194.89 186.48 C 192.90 186.69 191.22 187.67 189.97 189.21 C 196.07 202.73 202.66 216.02 208.51 229.65 C 210.22 235.04 210.42 240.76 211.63 246.28 C 210.39 253.85 209.72 261.79 205.71 268.53 C 202.53 273.89 199.68 279.41 196.93 285.00 C 193.54 290.48 190.76 296.31 187.94 302.10 C 187.77 305.77 191.79 306.89 194.01 308.95 C 196.14 311.51 198.53 314.66 197.92 318.21 C 197.26 320.54 196.23 322.83 194.67 324.71 C 192.34 326.67 189.39 327.63 186.55 328.56 C 181.72 327.16 177.28 324.71 172.98 322.15 C 155.50 312.64 138.10 302.98 120.59 293.52 C 103.51 284.14 86.78 274.08 69.70 264.70 C 72.47 269.29 76.47 272.93 79.81 277.08 C 98.38 295.77 122.19 309.37 148.00 314.97 C 150.95 315.72 154.56 315.88 156.34 318.77 C 158.19 321.00 156.45 324.04 154.29 325.29 C 151.41 327.33 148.00 325.30 144.95 324.81 C 117.74 318.91 92.85 304.26 73.12 284.80 C 63.86 274.86 55.63 263.95 49.05 252.05 C 49.05 250.84 49.06 249.64 49.09 248.44 C 61.98 242.92 73.54 234.76 86.63 229.71 C 85.32 232.59 84.01 235.47 83.07 238.49 C 81.77 241.17 81.30 244.82 84.26 246.60 C 109.32 261.29 134.42 275.97 160.22 289.33 C 161.28 290.51 162.02 291.92 162.78 293.31 C 162.93 292.77 163.25 291.69 163.40 291.15 C 163.47 291.14 163.61 291.12 163.69 291.11 C 167.28 293.12 170.84 295.51 174.99 296.19 C 177.03 296.56 178.10 294.66 179.11 293.27 C 181.97 289.19 183.50 284.39 186.12 280.19 C 193.30 269.75 198.34 257.64 199.65 244.98 C 198.91 240.61 198.54 236.13 196.96 231.96 C 193.76 223.22 188.67 215.34 185.33 206.67 C 182.15 200.63 179.74 194.24 176.69 188.15 C 175.60 187.78 174.52 187.41 173.44 187.03 C 172.99 186.56 172.08 185.63 171.62 185.16 C 179.28 182.30 185.61 176.56 193.72 174.91 C 203.78 173.53 213.90 172.55 223.99 171.34 C 232.41 170.33 240.94 168.00 247.75 162.75 C 257.38 156.78 260.64 145.23 267.04 136.49 C 270.46 133.42 274.78 131.72 278.82 129.63 Z" />
<path fill="#01396f" stroke="#01396f" stroke-width="0.09375" opacity="1.00" d=" M 286.60 134.62 C 287.72 133.36 289.17 132.14 290.90 131.92 C 292.26 132.52 293.13 133.79 294.14 134.82 C 290.18 143.01 285.01 150.56 281.12 158.76 C 285.48 165.79 284.19 174.52 285.55 182.37 C 284.79 190.22 284.30 198.14 282.52 205.86 C 278.81 223.72 269.83 240.21 258.06 254.03 C 256.55 255.39 254.92 256.80 252.91 257.34 C 250.10 257.55 247.49 254.91 247.66 252.11 C 248.23 249.84 249.82 248.04 251.30 246.30 C 256.80 240.00 261.15 232.81 265.30 225.58 C 265.33 225.51 265.40 225.37 265.43 225.30 C 268.96 216.86 272.25 208.20 273.64 199.12 C 274.12 195.96 274.31 192.76 275.10 189.65 C 276.31 185.00 276.55 180.01 275.06 175.40 C 274.69 174.11 274.24 172.83 273.84 171.56 C 266.57 183.51 260.14 195.96 253.05 208.03 C 236.12 238.08 219.21 268.15 202.22 298.16 C 201.26 300.41 199.40 301.94 197.26 303.00 C 196.04 301.61 195.06 300.04 194.51 298.27 C 199.60 288.01 205.87 278.39 211.19 268.25 C 236.45 223.78 261.44 179.14 286.60 134.62 Z" />
</g>
<g id="#cee6fdff">
<path fill="#cee6fd" stroke="#cee6fd" stroke-width="0.09375" opacity="1.00" d=" M 175.24 142.35 C 185.48 143.05 195.74 143.74 206.01 143.69 C 207.60 143.64 209.20 143.86 210.73 144.33 C 216.07 145.07 221.63 144.01 226.85 145.20 C 233.89 145.93 241.07 145.76 248.00 147.31 C 250.08 147.78 251.89 150.55 250.41 152.45 C 249.12 154.39 247.99 156.60 245.89 157.78 C 241.26 160.80 236.63 164.35 230.97 165.03 C 217.15 166.90 203.03 166.46 189.36 169.33 C 187.55 168.68 185.55 168.25 184.06 166.96 C 181.71 163.73 180.37 159.93 178.83 156.29 C 177.14 152.67 175.28 149.14 173.56 145.54 C 174.11 144.47 174.66 143.41 175.24 142.35 Z" />
<path fill="#cee6fd" stroke="#cee6fd" stroke-width="0.09375" opacity="1.00" d=" M 170.50 194.36 C 171.49 192.29 174.34 193.01 174.79 195.07 C 176.47 201.18 175.94 207.71 177.99 213.75 C 180.21 214.81 182.54 216.03 183.47 218.47 C 187.73 227.07 192.51 235.85 193.13 245.62 C 192.56 252.00 190.61 258.15 188.00 263.97 C 183.58 262.64 178.25 262.68 174.98 258.94 C 171.08 254.53 167.78 249.02 167.77 242.96 C 167.71 240.17 167.47 237.37 166.58 234.72 C 162.79 241.81 163.68 250.57 159.41 257.45 C 153.84 262.49 145.51 261.14 138.92 263.90 C 136.97 265.18 139.58 266.64 140.79 267.19 C 146.02 268.40 151.52 266.85 156.74 268.15 C 161.78 270.92 163.19 277.38 161.63 282.59 C 155.87 278.69 149.25 276.32 143.38 272.60 C 126.95 263.94 111.10 254.24 95.01 244.98 C 93.01 243.82 91.45 241.96 90.73 239.75 C 92.22 233.58 95.79 228.23 98.96 222.83 C 100.49 219.70 101.87 215.58 105.90 215.08 C 114.56 214.38 123.28 214.66 131.96 214.59 C 140.33 214.76 148.70 214.36 157.06 214.90 C 160.32 215.22 163.77 214.47 166.43 212.53 C 169.45 206.97 168.15 200.15 170.50 194.36 Z" />
<path fill="#cee6fd" stroke="#cee6fd" stroke-width="0.09375" opacity="1.00" d=" M 173.23 271.08 C 177.48 269.23 182.13 268.45 186.45 266.72 C 183.55 272.56 180.22 278.18 176.57 283.59 C 175.44 285.41 173.50 286.43 171.70 287.46 C 169.82 286.60 167.92 285.78 165.99 285.05 C 167.08 279.87 169.12 274.61 173.23 271.08 Z" />
</g>
</svg>
