<?xml version="1.0" encoding="UTF-8" ?>
<!DOCTYPE svg PUBLIC "-//W3C//DTD SVG 1.1//EN" "http://www.w3.org/Graphics/SVG/1.1/DTD/svg11.dtd">
<svg width="354pt" height="354pt" viewBox="0 0 354 354" version="1.1" xmlns="http://www.w3.org/2000/svg">
<g id="#ffffffff">
<path fill="#ffffff" stroke="#ffffff" stroke-width="0.09375" opacity="1.00" d=" M 159.24 44.25 C 159.61 38.89 164.30 34.33 169.70 34.24 C 172.73 35.17 175.83 35.57 178.98 35.01 C 204.73 35.34 230.37 42.41 252.52 55.57 C 273.64 68.02 291.56 85.85 304.10 106.92 C 306.64 110.56 310.02 113.83 310.50 118.48 L 308.91 119.78 C 309.24 118.23 309.84 116.60 308.84 115.16 C 308.50 115.04 307.82 114.81 307.47 114.69 C 301.29 117.54 295.70 121.53 289.43 124.22 C 289.94 124.64 290.94 125.49 291.45 125.92 C 290.83 125.55 289.58 124.82 288.96 124.45 C 287.64 125.18 286.34 125.91 285.00 126.59 C 279.15 129.35 273.29 132.13 267.87 135.67 C 271.34 130.85 273.87 125.45 275.71 119.82 C 275.84 115.37 270.92 114.03 267.94 111.96 C 261.04 107.34 253.00 104.78 246.22 99.98 C 242.14 97.21 237.51 95.43 233.20 93.08 C 223.90 87.76 214.94 81.83 205.51 76.73 C 197.74 73.35 190.89 68.12 182.88 65.29 C 178.25 65.03 177.21 70.21 175.09 73.21 C 168.93 82.77 163.88 92.95 158.97 103.19 C 157.52 107.00 157.20 111.12 156.32 115.09 C 156.84 125.18 160.73 134.80 165.34 143.71 C 167.54 149.61 170.64 155.09 173.36 160.76 C 175.13 165.13 176.98 169.50 179.40 173.56 C 180.78 175.22 182.90 176.26 184.99 176.66 C 188.69 175.70 192.47 175.11 196.29 174.87 C 193.23 175.57 189.86 175.38 187.14 177.13 C 181.78 180.44 175.91 182.79 170.45 185.90 C 172.12 186.26 173.79 186.65 175.44 187.08 C 171.96 186.61 168.42 185.85 164.90 186.48 C 154.80 187.88 144.66 188.87 134.55 190.17 C 128.68 190.85 122.54 191.13 117.19 193.88 C 111.02 196.80 104.81 200.50 101.18 206.49 C 96.30 213.93 91.69 221.58 87.40 229.37 C 83.86 229.96 80.96 232.25 77.72 233.64 C 72.97 235.76 68.73 238.82 64.02 241.00 C 58.59 243.76 53.05 246.29 47.77 249.31 C 41.40 235.87 36.26 221.77 33.86 207.05 C 27.58 170.71 35.60 131.81 56.66 101.43 L 57.46 101.57 L 57.57 100.50 L 58.69 100.51 L 58.73 99.38 C 59.12 99.48 59.92 99.68 60.32 99.78 C 61.05 97.38 64.51 99.15 66.39 98.57 L 66.89 102.12 C 67.23 101.22 67.93 99.42 68.28 98.52 L 68.19 100.82 L 69.61 100.17 L 69.31 101.76 C 69.83 101.70 70.89 101.60 71.41 101.55 C 71.35 102.09 71.22 103.19 71.16 103.74 L 72.44 103.47 C 72.42 104.25 72.36 105.82 72.34 106.60 C 72.76 106.70 73.61 106.90 74.03 107.00 L 72.43 107.45 C 73.47 111.83 69.98 115.26 68.11 118.85 C 48.11 152.71 45.46 195.95 61.01 232.05 C 65.41 222.30 71.61 213.53 76.55 204.06 C 70.48 176.08 76.72 145.62 93.61 122.46 C 94.31 121.80 95.04 121.17 95.80 120.58 C 97.11 120.54 98.42 120.51 99.74 120.49 L 99.22 121.80 L 100.88 121.26 L 100.24 122.79 L 101.61 122.29 C 101.53 124.43 102.11 126.87 100.50 128.62 C 87.84 146.58 81.94 169.04 83.82 190.92 C 85.24 189.98 85.80 188.31 86.57 186.87 C 105.87 153.65 125.10 120.38 144.33 87.12 C 149.41 78.87 153.73 70.18 159.07 62.08 C 160.01 60.51 161.50 59.44 162.96 58.38 C 164.12 59.31 165.29 60.24 166.46 61.17 C 166.45 64.44 164.16 66.89 162.72 69.63 C 160.32 74.11 157.49 78.35 154.62 82.54 C 150.62 90.69 144.97 97.94 140.56 105.88 C 122.86 136.37 105.24 166.91 87.55 197.41 C 85.79 199.65 85.33 202.49 84.23 205.04 C 81.57 206.59 80.85 209.85 79.07 212.18 C 75.02 219.90 69.87 227.12 66.24 234.99 C 67.54 238.17 70.89 236.06 72.01 233.98 C 76.31 225.27 81.97 217.31 86.61 208.79 C 92.35 197.65 102.05 188.70 113.58 183.82 C 124.54 179.49 136.47 179.50 147.97 177.77 C 154.02 176.84 160.32 177.09 166.16 175.14 C 166.72 173.34 166.98 171.43 165.86 169.78 C 163.22 164.05 159.91 158.62 157.79 152.67 C 154.30 145.61 150.63 138.60 148.35 131.03 C 144.74 118.71 145.74 105.26 150.74 93.48 C 153.51 88.63 156.21 83.75 158.85 78.83 C 163.03 73.26 168.00 67.26 168.14 59.98 C 169.67 57.70 167.22 55.88 165.33 55.02 C 161.30 53.00 159.59 48.50 159.24 44.25 M 191.85 45.22 C 224.05 61.84 255.33 80.24 286.90 98.08 C 264.22 68.51 229.06 48.52 191.85 45.22 Z" />
<path fill="#ffffff" stroke="#ffffff" stroke-width="0.09375" opacity="1.00" d=" M 159.03 257.98 C 163.84 251.20 162.61 241.96 166.61 234.80 C 167.58 237.42 167.73 240.22 167.77 243.00 C 167.80 248.81 170.89 254.13 174.48 258.51 C 177.79 262.52 183.37 262.60 188.00 263.95 C 188.28 264.24 188.85 264.82 189.13 265.11 C 188.23 265.63 187.34 266.16 186.44 266.68 C 182.04 268.24 177.49 269.37 173.16 271.08 C 169.03 274.60 167.08 279.89 165.96 285.06 C 165.47 286.80 164.97 288.54 164.53 290.30 C 163.91 290.91 162.66 292.14 162.04 292.75 C 161.86 292.21 161.49 291.13 161.30 290.59 C 161.21 287.91 161.24 285.22 161.58 282.56 C 163.10 277.34 161.88 270.88 156.80 268.08 C 151.54 266.96 146.04 268.40 140.79 267.20 C 139.44 266.82 137.54 265.39 138.74 263.89 C 145.32 261.37 153.17 262.30 159.03 257.98 Z" />
</g>
<g id="#36a2a2ff">
<path fill="#36a2a2" stroke="#36a2a2" stroke-width="0.09375" opacity="1.00" d=" M 307.47 114.69 C 307.82 114.81 308.50 115.04 308.84 115.16 C 309.84 116.60 309.24 118.23 308.91 119.78 L 310.50 118.48 C 331.64 161.55 329.66 215.02 305.30 256.36 C 304.49 257.68 303.64 259.07 303.62 260.68 C 300.57 263.38 298.69 267.04 296.22 270.22 C 285.60 284.47 272.50 296.92 257.52 306.51 C 253.67 309.12 248.57 308.70 244.84 306.11 C 242.68 304.42 242.38 301.48 241.71 299.02 C 242.12 295.16 244.05 291.50 247.50 289.55 C 269.82 275.21 287.11 253.51 296.77 228.86 C 309.25 197.07 308.24 160.23 293.83 129.25 C 293.27 127.99 292.59 126.74 291.45 125.92 C 290.94 125.49 289.94 124.64 289.43 124.22 C 295.70 121.53 301.29 117.54 307.47 114.69 Z" />
<path fill="#36a2a2" stroke="#36a2a2" stroke-width="0.09375" opacity="1.00" d=" M 267.87 135.67 C 273.29 132.13 279.15 129.35 285.00 126.59 C 284.89 127.09 284.66 128.09 284.55 128.59 C 279.17 137.29 274.21 146.23 268.91 154.97 C 265.51 161.50 260.97 167.67 254.73 171.74 C 247.44 177.69 238.32 181.23 228.98 182.15 C 217.45 183.52 205.90 184.79 194.37 186.21 C 193.31 186.48 192.26 186.78 191.22 187.13 C 190.92 187.71 190.31 188.87 190.00 189.44 C 192.37 196.25 196.50 202.27 198.86 209.08 C 202.02 214.81 204.24 220.98 207.17 226.83 C 209.65 232.91 210.37 239.52 211.03 245.99 C 210.59 255.44 208.41 265.13 202.89 272.99 C 198.07 282.86 192.36 292.25 187.70 302.22 C 188.33 306.95 194.13 307.96 196.08 312.03 C 201.14 318.83 193.41 328.23 185.91 327.99 C 181.93 327.26 178.40 325.05 174.93 323.06 C 146.42 307.21 117.53 292.08 89.39 275.54 C 82.30 271.76 75.52 267.43 68.46 263.58 C 87.00 289.29 115.35 307.45 146.07 314.84 C 149.51 315.95 154.05 315.45 156.30 318.81 C 158.24 321.89 155.36 325.83 151.99 325.91 C 124.12 321.34 98.09 307.74 77.44 288.61 C 65.41 277.32 55.67 263.75 47.77 249.31 C 53.05 246.29 58.59 243.76 64.02 241.00 C 68.73 238.82 72.97 235.76 77.72 233.64 C 80.96 232.25 83.86 229.96 87.40 229.37 C 85.82 233.83 82.94 237.71 81.56 242.24 C 81.39 244.82 83.41 246.52 85.46 247.62 C 105.28 258.84 124.67 270.87 144.94 281.27 C 150.13 284.85 156.41 286.57 161.30 290.59 C 161.49 291.13 161.86 292.21 162.04 292.75 C 162.66 292.14 163.91 290.91 164.53 290.30 C 164.44 290.66 164.26 291.37 164.16 291.72 C 168.50 293.49 172.71 297.61 177.70 295.99 C 179.51 292.95 181.74 290.13 182.91 286.76 C 185.30 280.25 190.77 275.45 192.92 268.83 C 196.85 260.16 200.75 250.77 199.32 241.05 C 198.36 229.98 191.36 220.89 187.34 210.85 C 185.87 206.80 183.53 203.15 181.89 199.18 C 180.31 195.23 178.57 191.32 176.41 187.65 C 176.17 187.50 175.69 187.22 175.44 187.08 C 173.79 186.65 172.12 186.26 170.45 185.90 C 175.91 182.79 181.78 180.44 187.14 177.13 C 189.86 175.38 193.23 175.57 196.29 174.87 C 203.48 173.84 210.72 173.17 217.93 172.30 C 227.46 171.45 237.47 170.06 245.55 164.54 C 248.44 162.52 251.76 160.85 253.76 157.83 C 255.81 154.88 258.35 152.26 260.06 149.08 C 262.02 144.27 265.09 140.03 267.87 135.67 Z" />
<path fill="#36a2a2" stroke="#36a2a2" stroke-width="0.09375" opacity="1.00" d=" M 283.48 140.42 C 285.00 136.88 287.13 133.36 290.82 131.77 C 292.02 132.64 293.10 133.66 293.96 134.88 C 289.99 143.17 284.79 150.77 280.79 159.03 C 281.91 160.44 283.06 161.91 283.29 163.76 C 289.28 195.65 279.44 229.96 257.71 254.03 C 255.73 257.63 248.69 258.41 248.14 253.45 C 247.41 250.33 250.03 248.03 251.82 245.87 C 269.43 225.62 277.66 197.90 274.70 171.29 C 270.60 174.10 269.62 179.73 266.71 183.64 C 248.41 216.08 230.08 248.50 211.83 280.96 C 207.99 287.48 204.66 294.30 200.47 300.62 C 199.71 301.65 198.43 302.10 197.43 302.84 C 195.20 301.25 194.26 298.18 195.81 295.79 C 225.11 244.05 254.23 192.19 283.48 140.42 Z" />
</g>
<g id="#cee6fdff">
<path fill="#cee6fd" stroke="#cee6fd" stroke-width="0.09375" opacity="1.00" d=" M 173.58 145.56 C 174.09 144.51 174.59 143.46 175.10 142.41 C 186.51 142.95 197.92 143.93 209.36 143.70 L 209.43 144.43 C 214.89 144.52 220.36 144.72 225.82 144.74 C 226.06 144.87 226.54 145.15 226.78 145.28 C 233.52 145.73 240.32 145.91 247.00 147.05 C 249.25 147.23 251.54 149.43 250.80 151.78 C 249.39 153.96 248.17 156.49 245.82 157.82 C 241.44 160.64 237.12 164.02 231.82 164.88 C 217.80 166.96 203.43 166.35 189.54 169.32 C 187.05 168.58 183.96 167.93 182.91 165.22 C 179.65 158.74 177.00 151.97 173.58 145.56 Z" />
<path fill="#cee6fd" stroke="#cee6fd" stroke-width="0.09375" opacity="1.00" d=" M 170.49 194.37 C 171.52 192.31 174.41 193.01 174.82 195.12 C 176.48 201.23 175.90 207.79 178.04 213.80 C 180.25 214.81 182.57 216.00 183.46 218.45 C 187.71 226.99 192.39 235.70 193.14 245.39 C 192.59 251.84 190.67 258.08 188.00 263.95 C 183.37 262.60 177.79 262.52 174.48 258.51 C 170.89 254.13 167.80 248.81 167.77 243.00 C 167.73 240.22 167.58 237.42 166.61 234.80 C 162.61 241.96 163.84 251.20 159.03 257.98 C 153.17 262.30 145.32 261.37 138.74 263.89 C 137.54 265.39 139.44 266.82 140.79 267.20 C 146.04 268.40 151.54 266.96 156.80 268.08 C 161.88 270.88 163.10 277.34 161.58 282.56 C 155.83 278.65 149.20 276.32 143.35 272.58 C 126.74 263.82 110.68 254.03 94.44 244.61 C 92.56 243.50 91.57 241.51 90.55 239.68 C 92.43 234.20 95.00 228.99 98.23 224.17 C 100.14 221.45 100.53 217.43 103.79 215.86 C 105.34 214.85 107.25 214.94 109.02 214.83 C 122.35 214.37 135.68 214.72 149.01 214.61 C 154.84 214.43 161.37 216.39 166.44 212.54 C 169.43 206.97 168.17 200.17 170.49 194.37 Z" />
<path fill="#cee6fd" stroke="#cee6fd" stroke-width="0.09375" opacity="1.00" d=" M 173.16 271.08 C 177.49 269.37 182.04 268.24 186.44 266.68 C 183.62 272.54 180.22 278.10 176.63 283.52 C 175.50 285.41 173.52 286.45 171.64 287.44 C 169.78 286.56 167.89 285.76 165.96 285.06 C 167.08 279.89 169.03 274.60 173.16 271.08 Z" />
</g>
</svg>
