<?xml version="1.0" standalone="no"?>
<!DOCTYPE svg PUBLIC "-//W3C//DTD SVG 20010904//EN"
 "http://www.w3.org/TR/2001/REC-SVG-20010904/DTD/svg10.dtd">
<svg version="1.0" xmlns="http://www.w3.org/2000/svg"
 width="282.000000pt" height="282.000000pt" viewBox="0 0 282.000000 282.000000"
 preserveAspectRatio="xMidYMid meet">
<metadata>
Created by potrace 1.14, written by Peter Selinger 2001-2017
</metadata>
<g transform="translate(0.000000,282.000000) scale(0.100000,-0.100000)"
fill="#000000" stroke="none">
<path d="M1677 2253 c-1 -1 -133 -3 -292 -5 -320 -3 -354 -8 -375 -58 -8 -20
-11 -147 -11 -427 1 -598 5 -734 22 -761 24 -38 65 -49 164 -43 l89 6 -41 32
c-32 26 -42 41 -45 70 -5 43 1 55 137 263 48 74 108 167 133 205 24 39 52 81
62 95 9 14 25 41 35 60 9 19 41 71 70 115 29 44 81 124 115 177 64 99 88 118
146 118 30 0 30 -3 -6 -55 -16 -24 -30 -47 -30 -50 0 -4 -17 -32 -39 -63 -21
-32 -65 -97 -96 -147 -32 -49 -91 -139 -130 -200 -40 -60 -80 -126 -90 -145
-10 -19 -60 -100 -112 -179 l-95 -144 12 -42 c11 -38 21 -48 123 -115 274
-181 541 -352 572 -367 45 -21 113 6 146 60 13 22 29 47 34 56 6 9 27 41 47
71 20 30 41 66 47 80 13 31 30 58 54 84 9 11 17 26 17 33 0 7 4 13 8 13 5 0
15 12 23 28 7 15 32 54 55 87 22 33 85 130 139 215 55 85 102 157 106 160 29
22 58 143 38 155 -6 4 -14 18 -20 32 -5 13 -13 22 -18 19 -5 -3 -14 1 -21 9
-7 8 -32 25 -56 37 -24 12 -44 25 -44 30 0 4 -5 8 -10 8 -6 0 -35 18 -64 40
-29 22 -55 40 -58 40 -3 0 -66 40 -139 88 -175 115 -262 167 -273 164 -17 -6
-46 32 -46 59 0 29 -54 94 -71 83 -5 -3 -15 -2 -21 3 -11 7 -185 13 -191 6z
m259 -437 c141 -91 143 -93 154 -156 10 -52 13 -69 25 -157 3 -21 14 -81 24
-133 11 -52 25 -127 31 -167 8 -44 17 -70 24 -67 10 4 76 98 76 108 0 2 25 43
55 91 66 105 69 130 20 184 -20 22 -32 41 -28 44 13 7 246 -150 234 -157 -6
-4 -27 -1 -47 6 -43 15 -78 0 -107 -47 -10 -17 -55 -92 -100 -167 -171 -287
-231 -378 -242 -367 -5 6 -35 156 -50 254 -8 50 -16 99 -19 110 -2 11 -14 70
-25 130 -12 61 -28 142 -36 180 -8 39 -17 86 -20 105 -10 58 -21 55 -60 -17
-21 -37 -66 -114 -101 -170 -35 -57 -64 -105 -64 -108 0 -3 -9 -18 -20 -33
-11 -15 -22 -38 -25 -51 -6 -31 18 -87 44 -101 22 -11 28 -30 10 -30 -6 0 -48
24 -92 53 -45 30 -97 62 -114 72 -18 11 -33 25 -33 32 0 17 6 16 34 -2 22 -15
51 -15 87 -1 21 9 220 319 279 434 34 68 32 118 -6 155 -24 22 -30 37 -16 37
4 0 53 -29 108 -64z"/>
<path d="M859 2116 c-2 -3 -16 -7 -31 -10 -14 -2 -55 -20 -92 -40 -36 -20 -66
-34 -66 -31 0 3 -16 -4 -35 -15 -20 -11 -40 -20 -46 -20 -6 0 -61 -24 -122
-54 -123 -59 -299 -136 -313 -136 -5 -1 -22 -11 -37 -23 -25 -21 -41 -61 -38
-94 3 -36 5 -43 11 -43 7 0 53 -105 50 -116 -1 -4 3 -10 8 -13 14 -9 44 -72
38 -78 -3 -3 4 -19 15 -35 12 -16 19 -32 15 -35 -3 -3 5 -20 17 -37 12 -17 20
-31 19 -31 -4 0 6 -25 45 -114 12 -29 23 -58 23 -63 0 -5 28 -67 61 -136 34
-70 69 -151 79 -182 26 -80 70 -169 89 -179 40 -20 83 -21 122 -1 21 11 39 17
39 14 0 -4 8 0 18 9 17 16 64 37 92 43 9 2 57 24 108 49 51 25 95 45 98 45 3
0 35 13 71 30 35 16 71 30 79 30 8 0 14 4 14 8 0 4 14 13 32 20 42 15 29 26
-30 24 -200 -7 -249 3 -272 58 -8 18 -12 203 -14 561 -4 655 -2 599 -24 599
-10 0 -21 -2 -23 -4z"/>
</g>
</svg>
