<?xml version="1.0" standalone="no"?>
<!DOCTYPE svg PUBLIC "-//W3C//DTD SVG 20010904//EN"
 "http://www.w3.org/TR/2001/REC-SVG-20010904/DTD/svg10.dtd">
<svg version="1.0" xmlns="http://www.w3.org/2000/svg"
 width="354.000000pt" height="354.000000pt" viewBox="0 0 354.000000 354.000000"
 preserveAspectRatio="xMidYMid meet">
<metadata>
Created by potrace 1.14, written by Peter Selinger 2001-2017
</metadata>
<g transform="translate(0.000000,354.000000) scale(0.100000,-0.100000)"
fill="#000000" stroke="none">
<path d="M1649 3181 c-72 -38 -71 -134 2 -192 34 -26 36 -31 29 -66 -8 -44
-19 -67 -70 -143 -132 -197 -169 -335 -136 -503 11 -57 40 -130 105 -269 105
-221 105 -222 9 -233 -35 -4 -74 -8 -88 -10 -14 -2 -45 -6 -70 -9 -117 -13
-155 -18 -174 -22 -114 -21 -179 -53 -279 -134 -32 -26 -90 -111 -174 -255
-95 -164 -109 -181 -128 -165 -11 9 -11 17 -3 36 6 13 15 24 20 24 4 0 8 5 8
11 0 11 119 220 130 229 4 3 24 39 44 80 21 41 46 86 55 100 10 14 69 114 132
223 63 109 122 212 132 230 11 18 48 84 85 147 79 139 139 239 204 342 26 43
48 80 48 83 0 4 17 32 39 63 21 31 53 84 70 117 30 56 31 60 14 73 -10 7 -24
11 -33 10 -13 -3 -69 -88 -143 -220 -13 -23 -35 -61 -47 -83 -13 -22 -52 -89
-87 -150 -35 -60 -68 -117 -73 -125 -8 -14 -190 -329 -236 -408 -206 -359
-202 -355 -198 -233 6 179 53 338 141 478 41 66 49 96 29 112 -8 7 -21 9 -27
5 -8 -4 -9 -3 -5 4 11 18 -10 14 -29 -4 -17 -18 -73 -104 -92 -144 -19 -39
-69 -172 -78 -205 -8 -32 -8 -35 -23 -135 -11 -73 -7 -256 7 -305 8 -29 2 -44
-65 -160 -41 -71 -74 -133 -74 -137 0 -49 -56 90 -79 197 -6 28 -13 64 -17 80
-3 17 -8 95 -10 175 -3 140 6 224 36 341 18 70 74 219 82 219 5 0 8 8 8 18 0
10 4 22 9 28 23 24 72 127 67 140 -3 9 -1 12 4 9 6 -3 10 3 10 15 0 14 -4 19
-12 14 -10 -6 -10 -4 0 8 10 13 8 19 -12 39 -14 13 -29 23 -33 22 -4 -1 -12 2
-18 7 -13 10 -55 -6 -55 -22 0 -9 -3 -9 -10 2 -5 8 -11 12 -13 10 -13 -15 -87
-128 -87 -133 0 -4 -16 -39 -35 -79 -84 -172 -138 -418 -138 -623 1 -54 13
-207 18 -215 2 -3 6 -25 10 -49 3 -24 18 -82 31 -130 144 -498 528 -871 1037
-1006 106 -29 132 -26 150 12 10 22 8 28 -11 43 -12 10 -41 21 -65 25 -23 4
-87 22 -142 41 -230 76 -449 223 -596 397 -32 39 -57 72 -55 74 2 2 28 -11 57
-30 30 -19 79 -47 109 -64 30 -17 100 -56 155 -88 203 -116 473 -265 481 -265
2 0 22 -11 42 -24 21 -13 76 -44 123 -69 46 -24 102 -55 124 -67 76 -44 145
-28 181 42 22 42 11 73 -42 125 -24 24 -44 48 -44 53 0 12 40 93 102 210 25
47 57 107 71 133 38 70 61 185 53 260 -11 102 -22 134 -96 292 -15 33 -46 99
-69 147 -54 116 -52 120 64 134 33 3 71 8 85 10 72 8 148 17 170 19 59 5 118
19 165 37 64 25 165 97 203 145 31 40 222 360 222 373 0 14 51 21 65 10 33
-27 85 -173 116 -325 29 -139 29 -342 0 -482 -70 -336 -249 -614 -522 -806
-76 -53 -94 -82 -85 -136 6 -41 10 -46 56 -65 33 -13 40 -13 79 5 102 46 286
214 407 374 135 178 241 440 271 670 14 108 8 372 -11 468 -19 98 -73 271
-105 338 -12 23 -21 48 -21 54 0 13 -116 188 -170 256 -46 58 -183 196 -240
240 -170 133 -400 242 -599 284 -108 22 -131 25 -246 30 -60 3 -122 8 -136 10
-15 2 -42 -4 -60 -14z m371 -106 c14 -3 34 -7 45 -9 42 -8 147 -37 173 -48
165 -67 241 -108 362 -196 73 -53 266 -240 257 -249 -3 -2 -144 75 -313 172
-170 97 -314 178 -320 179 -7 1 -18 7 -25 13 -8 5 -61 35 -119 66 -58 31 -114
63 -125 71 -19 15 -19 15 10 11 17 -2 41 -7 55 -10z m-20 -275 c80 -43 193
-107 252 -141 110 -66 198 -115 327 -184 129 -68 169 -95 174 -117 9 -31 -96
-228 -195 -369 -73 -103 -192 -156 -388 -174 -36 -3 -76 -8 -90 -10 -14 -2
-52 -7 -85 -10 -84 -8 -139 -16 -144 -21 -2 -2 -16 4 -31 13 -20 12 -48 61
-114 202 -133 282 -154 358 -130 462 20 87 179 391 223 427 21 17 35 11 201
-78z m-1299 -287 l24 -26 -27 19 c-15 10 -28 22 -28 27 0 12 5 8 31 -20z
m1067 -855 c6 -6 12 -14 12 -19 0 -8 40 -95 134 -294 83 -174 92 -212 75 -317
-11 -68 -71 -212 -115 -278 -17 -25 -43 -71 -58 -103 -33 -68 -55 -80 -106
-59 -61 25 -68 33 -58 69 8 30 10 32 33 21 40 -18 67 2 120 89 26 43 55 89 64
103 8 14 14 29 13 34 -2 4 1 13 6 20 36 46 49 166 27 242 -23 80 -94 224 -110
224 -21 0 -28 18 -45 120 -11 72 -19 96 -32 98 -19 4 -34 -36 -44 -120 -11
-96 1 -93 -340 -94 -330 -1 -313 2 -355 -78 -68 -130 -78 -153 -79 -169 0 -18
54 -77 70 -77 5 0 44 -22 87 -48 43 -26 105 -63 138 -81 33 -19 76 -43 95 -54
34 -20 52 -30 215 -117 44 -23 84 -45 88 -49 7 -7 17 -81 10 -81 -3 0 -47 23
-208 110 -44 24 -165 93 -270 153 -104 61 -216 124 -247 140 -81 44 -84 55
-34 157 39 82 90 170 145 255 69 107 175 166 326 181 22 2 54 6 70 8 17 3 61
8 100 12 38 4 92 10 120 15 57 8 134 2 153 -13z"/>
<path d="M1745 2099 c-4 -11 2 -38 14 -62 11 -23 31 -68 44 -99 31 -71 62 -92
119 -84 54 7 119 13 233 21 164 11 195 19 267 63 64 41 99 91 80 115 -15 18
-169 37 -329 41 -23 1 -45 4 -48 8 -4 4 -15 3 -25 -2 -10 -5 -20 -7 -23 -3 -4
3 -66 8 -139 9 -73 2 -145 6 -160 9 -20 3 -28 0 -33 -16z"/>
<path d="M2876 2199 c-14 -11 -26 -24 -26 -29 0 -5 -24 -51 -53 -102 -30 -51
-66 -115 -82 -143 -15 -27 -64 -115 -109 -195 -46 -80 -86 -152 -89 -160 -4
-8 -15 -28 -26 -45 -10 -16 -89 -156 -176 -310 -87 -154 -203 -359 -257 -455
-54 -96 -101 -184 -104 -195 -3 -11 1 -28 8 -37 19 -26 36 -8 101 107 32 55
62 107 67 115 6 8 16 26 22 40 7 14 32 58 55 98 24 40 43 75 43 77 0 3 11 22
23 43 25 39 55 92 115 202 19 36 38 70 42 75 4 6 22 37 40 70 44 79 60 108
104 182 20 34 36 64 36 67 0 4 11 23 24 44 13 20 40 66 59 102 43 81 57 86 58
23 7 -261 -62 -478 -213 -666 -60 -75 -65 -86 -48 -118 16 -29 52 -23 87 13
129 137 232 359 262 565 14 99 7 300 -13 347 -18 43 -17 44 67 190 36 62 44
84 36 98 -12 23 -20 23 -53 -3z"/>
</g>
</svg>
