<?xml version="1.0" standalone="no"?>
<!DOCTYPE svg PUBLIC "-//W3C//DTD SVG 20010904//EN"
 "http://www.w3.org/TR/2001/REC-SVG-20010904/DTD/svg10.dtd">
<svg version="1.0" xmlns="http://www.w3.org/2000/svg"
 width="700.000000pt" height="700.000000pt" viewBox="0 0 700.000000 700.000000"
 preserveAspectRatio="xMidYMid meet">
<metadata>
Created by potrace 1.14, written by Peter Selinger 2001-2017
</metadata>
<g transform="translate(0.000000,700.000000) scale(0.100000,-0.100000)"
fill="#000000" stroke="none">
<path d="M3286 6316 c-43 -16 -100 -67 -122 -107 -26 -51 -27 -100 -4 -169 23
-70 48 -103 95 -127 54 -27 75 -53 68 -82 -8 -34 -23 -43 -41 -24 -8 8 -26 22
-39 30 -48 31 -78 -7 -266 -332 -63 -110 -148 -256 -188 -325 -39 -69 -80
-138 -89 -155 -58 -101 -206 -355 -221 -380 -10 -16 -31 -52 -46 -80 -15 -27
-32 -58 -38 -67 -20 -34 -380 -655 -483 -833 -174 -302 -236 -404 -244 -399
-9 6 -8 242 3 320 15 115 17 130 29 179 6 28 14 61 16 75 20 106 161 441 223
529 45 63 81 134 81 159 0 48 -46 100 -84 96 -11 -1 -26 -3 -33 -3 -85 -6
-331 -476 -378 -723 -2 -11 -6 -27 -9 -36 -3 -9 -8 -32 -11 -51 -3 -19 -8 -37
-10 -41 -2 -3 -7 -33 -10 -66 -4 -32 -10 -86 -15 -119 -8 -59 -6 -365 3 -415
2 -14 7 -49 11 -77 4 -29 11 -65 15 -80 4 -16 7 -35 6 -43 -2 -9 -42 -83 -91
-165 -116 -199 -146 -251 -173 -308 -20 -42 -26 -47 -38 -35 -17 18 -100 261
-118 345 -28 136 -35 174 -40 208 -3 23 -7 51 -10 64 -8 44 -18 225 -17 330 0
135 16 307 37 411 3 14 8 41 11 60 11 60 62 251 88 328 55 158 171 403 239
501 33 48 57 117 57 164 0 44 -49 126 -92 154 -55 34 -140 35 -194 3 -42 -25
-95 -80 -116 -120 -7 -13 -39 -71 -71 -129 -32 -58 -81 -157 -108 -220 -28
-64 -54 -125 -59 -136 -31 -70 -115 -363 -134 -470 -8 -42 -24 -141 -31 -195
-3 -25 -8 -52 -10 -60 -6 -22 -18 -222 -18 -315 -1 -71 8 -216 17 -285 2 -14
7 -52 11 -85 4 -33 9 -62 10 -65 2 -3 6 -30 10 -60 4 -30 9 -58 11 -61 2 -3 6
-21 9 -40 3 -19 13 -61 21 -94 9 -33 17 -68 19 -77 2 -9 24 -77 48 -150 104
-310 250 -579 468 -863 37 -47 144 -172 194 -224 58 -62 244 -226 300 -266 16
-11 40 -29 54 -41 132 -107 445 -284 650 -366 197 -79 518 -165 574 -154 69
14 111 80 83 134 -19 36 -48 55 -106 70 -25 6 -58 14 -75 18 -16 4 -37 8 -45
9 -22 3 -215 62 -280 86 -138 52 -261 108 -373 171 -77 43 -249 148 -257 158
-3 3 -39 30 -80 61 -171 127 -312 263 -452 438 -21 25 -38 49 -38 53 0 3 43
-18 96 -48 53 -30 100 -54 105 -54 5 0 9 -4 9 -10 0 -5 5 -10 10 -10 6 0 115
-60 243 -134 239 -137 503 -286 617 -348 36 -19 85 -46 110 -60 25 -14 124
-68 220 -120 96 -53 195 -107 220 -120 671 -370 644 -358 724 -327 77 29 114
59 143 119 31 64 34 119 9 169 -22 42 -94 121 -111 121 -20 0 -65 58 -65 83 0
12 37 92 82 177 45 85 105 200 134 255 29 55 61 116 71 135 9 19 34 64 55 100
45 76 77 167 93 260 22 125 30 200 24 225 -3 17 -12 66 -18 110 -14 93 -40
206 -51 220 -4 6 -31 64 -60 130 -29 66 -58 131 -65 145 -7 14 -27 54 -43 90
-72 157 -93 201 -136 293 -25 54 -43 104 -40 112 8 20 62 42 124 50 30 4 64 9
75 10 11 2 45 6 75 9 30 4 71 9 90 11 19 2 60 7 90 10 30 4 66 8 80 10 14 2
50 7 80 10 337 40 426 67 615 193 95 63 175 134 222 197 40 55 314 516 412
695 11 20 34 44 53 54 32 18 35 18 68 -1 30 -17 41 -35 78 -124 58 -138 104
-280 136 -412 25 -103 29 -124 41 -212 2 -22 7 -56 10 -75 29 -190 20 -509
-21 -740 -12 -69 -17 -92 -39 -182 -49 -193 -115 -364 -215 -555 -75 -143
-205 -342 -275 -420 -5 -6 -32 -37 -60 -69 -138 -159 -326 -324 -480 -421
-132 -84 -174 -186 -125 -302 21 -49 46 -67 125 -94 62 -22 115 -7 219 60 56
36 195 141 216 163 3 3 48 41 100 85 118 100 133 115 277 285 174 208 265 342
365 542 53 106 115 240 138 298 41 105 116 356 126 419 6 38 10 55 18 91 6 28
16 92 21 130 1 14 6 48 9 75 4 28 9 79 11 115 2 36 7 97 11 135 9 80 9 88 0
170 -3 33 -8 92 -11 130 -6 81 -14 167 -21 210 -3 17 -7 46 -10 65 -2 19 -6
42 -9 50 -2 8 -7 31 -10 50 -23 140 -124 453 -194 603 -16 34 -36 85 -45 113
-9 28 -55 109 -102 180 -92 137 -194 286 -204 294 -3 3 -50 59 -105 125 -126
152 -141 167 -301 306 -392 339 -911 587 -1399 669 -72 12 -91 14 -185 25 -30
3 -71 8 -90 10 -112 14 -171 18 -215 16 -71 -5 -103 -4 -160 3 -33 4 -63 1
-89 -8z m674 -242 c25 -4 54 -8 65 -10 11 -1 58 -11 105 -22 547 -128 1053
-428 1411 -836 43 -50 77 -92 74 -94 -5 -6 -121 58 -445 243 -146 84 -285 163
-310 177 -25 14 -99 56 -165 93 -66 38 -145 82 -175 98 -30 16 -102 56 -160
87 -169 93 -219 120 -330 180 -126 67 -150 82 -150 93 0 5 8 6 18 3 9 -2 37
-8 62 -12z m-680 -387 c0 -22 -48 -105 -135 -234 -21 -32 -48 -74 -58 -93 -26
-47 -37 -58 -37 -36 0 10 19 46 42 80 54 79 178 286 178 297 0 5 2 9 5 9 3 0
5 -10 5 -23z m455 -40 c33 -17 63 -30 68 -29 4 1 7 -2 7 -8 0 -5 4 -10 9 -10
5 0 37 -16 72 -36 35 -19 108 -58 164 -87 55 -28 102 -55 103 -59 2 -4 8 -8
12 -8 5 0 80 -43 166 -95 86 -52 159 -95 162 -95 3 0 13 -6 21 -14 9 -8 77
-45 152 -84 75 -38 163 -86 195 -107 32 -20 128 -73 213 -117 86 -44 163 -86
171 -92 8 -7 31 -20 51 -30 63 -33 113 -71 129 -98 12 -23 13 -34 2 -75 -17
-63 -86 -199 -154 -304 -31 -46 -84 -133 -118 -194 -81 -142 -114 -189 -170
-245 -83 -84 -225 -168 -340 -201 -57 -16 -46 -13 -110 -27 -78 -16 -125 -22
-365 -48 -33 -3 -67 -8 -76 -9 -9 -2 -52 -6 -95 -10 -43 -4 -81 -9 -84 -10 -3
-2 -34 -6 -70 -10 -77 -8 -155 -20 -155 -25 0 -10 -57 -4 -80 9 -62 33 -76 52
-140 201 -18 41 -60 131 -93 200 -33 69 -71 150 -85 180 -13 30 -39 87 -57
125 -37 81 -100 248 -106 285 -3 14 -10 40 -15 58 -27 83 -11 256 34 377 29
81 206 417 275 525 12 19 41 69 64 111 29 52 54 83 77 96 39 23 47 21 166 -40z
m-747 -469 c-46 -96 -55 -123 -84 -258 -31 -151 -34 -241 -9 -360 3 -14 8 -43
11 -65 8 -55 26 -116 62 -205 29 -73 48 -112 230 -495 83 -174 97 -224 74
-247 -13 -13 -130 -34 -234 -43 -40 -3 -84 -8 -98 -10 -14 -2 -50 -7 -80 -10
-30 -3 -66 -8 -80 -10 -14 -2 -50 -7 -80 -10 -112 -11 -155 -16 -170 -20 -8
-2 -35 -7 -60 -10 -74 -10 -210 -54 -295 -97 -190 -94 -345 -245 -460 -448
-27 -47 -93 -158 -147 -247 -53 -90 -112 -191 -129 -225 -17 -35 -39 -68 -48
-75 -23 -17 -61 -16 -68 3 -6 17 7 43 99 197 32 54 58 102 58 107 0 6 3 10 8
10 4 0 12 10 18 23 30 61 82 150 128 217 29 41 60 95 71 120 11 25 28 61 38
80 11 19 29 53 40 75 12 22 25 42 28 45 4 3 16 23 28 45 12 22 26 47 31 55 5
8 82 141 171 295 88 154 175 305 193 335 18 30 50 84 70 120 20 36 41 72 46
80 20 31 130 222 130 225 0 2 18 33 40 69 22 36 40 69 40 73 0 3 6 14 14 22 7
9 25 37 39 63 141 256 393 665 404 654 3 -3 -10 -38 -29 -78z m462 -1885 l45
-15 94 -207 c52 -113 130 -280 174 -371 129 -267 155 -338 173 -475 11 -83 11
-93 -11 -210 -28 -146 -144 -409 -245 -555 -9 -14 -38 -67 -64 -119 -107 -217
-125 -227 -268 -156 -114 57 -111 52 -86 117 22 62 27 64 95 30 41 -22 36 -23
100 24 24 18 119 160 172 259 18 33 37 65 42 71 5 6 6 13 3 16 -5 6 37 43 59
52 9 3 9 6 0 13 -9 6 -2 36 26 119 90 261 78 368 -80 692 -64 131 -73 145
-114 170 -51 31 -57 47 -75 182 -6 47 -13 103 -16 125 -13 101 -27 125 -74
125 -29 0 -49 -66 -66 -210 -3 -25 -10 -63 -15 -85 -6 -22 -13 -50 -16 -61 -2
-12 -24 -32 -46 -45 l-42 -23 -515 -2 c-688 -1 -624 2 -665 -36 -19 -18 -50
-62 -68 -98 -19 -36 -60 -110 -91 -165 -31 -55 -56 -108 -56 -117 0 -9 -4 -19
-9 -22 -16 -10 -19 -60 -6 -86 7 -14 24 -35 37 -46 48 -45 905 -535 1168 -670
52 -26 115 -60 140 -75 l45 -28 -3 -70 -4 -71 -136 71 c-75 39 -141 75 -147
79 -5 4 -59 33 -120 65 -60 32 -127 69 -147 82 -21 12 -39 23 -42 23 -6 0
-712 405 -731 420 -5 4 -30 19 -55 32 -25 14 -73 42 -106 62 -94 55 -101 96
-38 223 21 43 38 81 36 86 -1 4 2 7 7 7 5 0 13 10 17 22 11 36 250 429 306
503 77 102 223 198 368 243 62 19 96 25 200 37 25 3 68 8 95 11 28 4 61 8 75
9 45 5 143 16 174 20 17 2 56 7 87 10 31 3 65 7 75 9 11 2 46 7 79 11 33 3 61
8 63 10 10 10 164 1 202 -12z"/>
<path d="M3462 4177 c-35 -45 -34 -50 39 -204 137 -288 128 -274 186 -300 47
-22 58 -23 110 -14 136 23 200 30 428 46 85 6 175 13 265 21 126 10 207 42
334 127 79 53 145 136 138 174 -10 53 -79 76 -272 88 -118 8 -148 10 -230 19
-36 4 -119 9 -185 10 -66 2 -131 6 -145 9 -14 4 -117 9 -230 12 -219 6 -333
12 -392 19 -22 3 -40 0 -46 -7z"/>
<path d="M5705 4372 c-28 -17 -53 -59 -216 -347 -12 -22 -69 -123 -127 -225
-57 -102 -118 -210 -135 -240 -16 -30 -56 -100 -87 -155 -31 -55 -68 -120 -82
-145 -64 -115 -699 -1240 -872 -1544 -31 -54 -56 -100 -56 -102 0 -2 -50 -90
-110 -195 -61 -104 -125 -219 -143 -255 l-32 -65 24 -44 c13 -25 29 -45 35
-45 32 1 84 70 179 240 162 289 378 672 398 705 10 17 26 46 37 65 10 19 101
181 202 360 101 179 191 341 202 360 10 19 23 42 29 50 16 26 188 329 252 445
64 117 75 137 129 230 84 145 80 141 91 114 5 -13 11 -33 13 -44 6 -31 8 -291
1 -301 -5 -9 -12 -48 -22 -133 -8 -66 -14 -99 -36 -186 -36 -139 -148 -424
-171 -433 -4 -2 -8 -8 -8 -14 0 -17 -165 -260 -220 -323 -69 -79 -91 -128 -78
-167 10 -29 60 -68 86 -68 34 0 88 39 140 100 89 105 92 109 164 220 145 222
263 508 302 730 2 14 7 36 10 50 3 14 8 45 11 70 2 25 7 60 9 78 23 156 23
285 0 486 -10 87 -29 159 -51 192 -14 22 -12 29 35 116 27 51 73 134 102 183
29 50 65 115 80 145 l28 55 -27 28 c-32 32 -46 33 -86 9z"/>
</g>
</svg>
